<?xml version="1.0"?>
<svg version="1.1" xmlns="http://www.w3.org/2000/svg" width="400" height="80" style=""><path fill="#07c470" d="M16.925,73l0-4.675l4.125-1.65l0-25.85l-4.125-1.65l0-4.675l12.65-0.275l5.225,0c8.415,0,13.365,4.4,13.365,11.55c0,9.24-5.665,13.75-15.675,13.75l-2.915,0l0,7.15l4.125,1.65l0,4.675l-16.775,0z M29.575,53.09l2.915,0c4.565,0,7.15-2.145,7.15-6.215c0-3.575-1.925-6.05-5.665-6.05l-4.4,0l0,12.265z M93.95305,68.325l0,4.675l-17.49,0l0-4.675l4.125-1.485l-1.32-4.015l-12.21,0l-1.375,3.96l4.29,1.54l0,4.675l-16.61,0l0-4.675l4.015-1.54l12.1-32.395l8.8-0.165l11.825,32.56z M77.45305,56.94l-4.125-13.035l-4.345,13.035l8.47,0z M100.5261,73l0-4.675l4.125-1.65l0-25.85l-4.125-1.65l0-4.675l12.65-0.275l15.4,0l0,10.45l-5.115,0l-1.375-3.85l-8.91,0l0,9.625l11.385,0l0,6.05l-11.385,0l0,10.175l5.06,1.65l0,4.675l-17.71,0z M135.69915,73l0-4.675l4.125-1.65l0-25.85l-4.125-1.65l0-4.675l13.2-0.275l14.85,25.41l0-18.81l-4.015-1.65l0-4.675l15.675-0.275l0,4.95l-4.125,1.65l0,32.175l-9.185,0l-14.74-24.915l0,18.59l4.29,1.65l0,4.675l-15.95,0z M221.7472,68.325l0,4.675l-17.49,0l0-4.675l4.125-1.485l-1.32-4.015l-12.21,0l-1.375,3.96l4.29,1.54l0,4.675l-16.61,0l0-4.675l4.015-1.54l12.1-32.395l8.8-0.165l11.825,32.56z M205.2472,56.94l-4.125-13.035l-4.345,13.035l8.47,0z M238.05525,66.675l0-25.85l-5.225,0l-1.375,5.225l-5.06,0l0-11.825l31.9,0l0,11.825l-5.115,0l-1.375-5.225l-5.225,0l0,25.85l5.225,1.65l0,4.675l-18.975,0l0-4.675z M264.8683,73l0-4.675l4.125-1.65l0-25.85l-4.125-1.65l0-4.675l16.775-0.275l0,4.95l-4.125,1.65l0,25.85l4.125,1.65l0,4.675l-16.775,0z M308.84135,33.565c11,0,17.325,7.26,17.325,19.525c0,12.375-7.425,20.625-18.425,20.625s-17.05-6.875-17.05-19.8c0-12.65,6.985-20.35,18.15-20.35z M308.56635,40.44c-5.5,0-8.525,3.41-8.525,13.2c0,9.075,2.475,13.2,7.975,13.2s8.8-3.575,8.8-13.475c0-9.075-2.75-12.925-8.25-12.925z M334.9394,73l0-4.675l4.125-1.65l0-25.85l-4.125-1.65l0-4.675l13.2-0.275l14.85,25.41l0-18.81l-4.015-1.65l0-4.675l15.675-0.275l0,4.95l-4.125,1.65l0,32.175l-9.185,0l-14.74-24.915l0,18.59l4.29,1.65l0,4.675l-15.95,0z"/><path fill="#" d=""/></svg>
